<?xml version="1.0"?>
<svg xmlns="http://www.w3.org/2000/svg" xmlns:xlink="http://www.w3.org/1999/xlink" version="1.1" id="Capa_1" x="0px" y="0px" width="512px" height="512px" viewBox="0 0 612 612" style="enable-background:new 0 0 612 612;" xml:space="preserve"><g><g>
	<g id="Google_x2B_">
		<g>
			<path d="M76.5,497.25v-153H0V535.5C0,577.767,34.234,612,76.5,612h191.25v-76.5h-153C93.636,535.5,76.5,518.364,76.5,497.25z      M344.25,459V344.25H459v-76.5H344.25V153h-76.5v114.75H153v76.5h114.75V459H344.25z M76.5,114.75     c0-21.114,17.136-38.25,38.25-38.25h153V0H76.5C34.234,0,0,34.234,0,76.5v191.25h76.5V114.75z M535.5,497.25     c0,21.114-17.136,38.25-38.25,38.25h-153V612H535.5c42.267,0,76.5-34.233,76.5-76.5V344.25h-76.5V497.25z M535.5,0H344.25v76.5     h153c21.114,0,38.25,17.136,38.25,38.25v153H612V76.5C612,34.234,577.767,0,535.5,0z" data-original="#000000" class="active-path" data-old_color="##20C20" fill="#20C20E"/>
		</g>
	</g>
</g></g> </svg>
