<?xml version="1.0"?>
<svg xmlns="http://www.w3.org/2000/svg" xmlns:xlink="http://www.w3.org/1999/xlink" version="1.1" id="Capa_1" x="0px" y="0px" width="512px" height="512px" viewBox="0 0 478.125 478.125" style="enable-background:new 0 0 478.125 478.125;" xml:space="preserve" class=""><g><g>
	<path d="M420.75,19.125h9.562V0H95.625C68.85,0,47.812,21.038,47.812,47.812V420.75c0,32.513,24.862,57.375,57.375,57.375h325.125   V76.5h-9.562c-15.3,0-28.688-13.388-28.688-28.688S405.45,19.125,420.75,19.125z M95.625,19.125H382.5   c0,0-9.562,13.388-9.562,28.688S382.5,76.5,382.5,76.5H95.625c-15.3,0-28.688-13.388-28.688-28.688S80.325,19.125,95.625,19.125z    M315.562,95.625V260.1l-38.25-38.25l-38.25,38.25V95.625H315.562z M124.312,459h-19.125c-21.038,0-38.25-17.213-38.25-38.25   V86.062c7.65,5.737,17.212,9.562,28.688,9.562h28.688V459z M411.188,95.625V459h-267.75V95.625h76.5V306l57.375-57.375L334.688,306   V95.625H411.188z" data-original="#000000" class="active-path" data-old_color="##22AFC" fill="#22AFCA"/>
</g></g> </svg>
