<?xml version="1.0"?>
<svg xmlns="http://www.w3.org/2000/svg" xmlns:xlink="http://www.w3.org/1999/xlink" version="1.1" viewBox="0 0 295.82 295.82" enable-background="new 0 0 295.82 295.82" width="512px" height="512px" class=""><g><g>
    <g>
      <path d="m111.368,269.718h-102.667c-5.22,0-8.701,3.48-8.701,8.701s3.48,8.701 8.701,8.701h102.667c3.48,0 8.701-3.48 8.701-8.701s-3.481-8.701-8.701-8.701z" data-original="#000000" class="active-path" data-old_color="#000000" fill="#FF4500"/>
      <path d="m294.08,140.95l-29.582-41.763 29.582-62.644c1.74-3.48 0-6.96-1.74-10.441-3.48-1.74-6.96-3.48-10.441-1.74 0,0-22.621,13.921-52.204,13.921s-52.204-13.921-52.204-13.921c-1.74,0-27.842-15.661-60.904-15.661s-60.903,15.66-60.903,15.66c-1.74,1.74-3.48,5.22-3.48,6.96v205.334h-13.922c-5.22,0-8.701,3.48-8.701,8.701s3.48,8.701 8.701,8.701h43.503c5.22,0 8.701-3.48 8.701-8.701s-3.48-8.701-8.701-8.701h-12.181v-85.265c8.701-3.48 26.102-12.181 48.723-12.181 29.582,0 52.204,13.921 52.204,13.921 1.74,0 27.842,15.661 60.904,15.661s60.904-15.661 60.904-15.661c1.74-1.74 3.48-3.48 3.48-5.22 0.001-1.74 0.001-5.22-1.739-6.96zm-64.384,10.44c-29.582,0-52.204-13.921-52.204-13.921-1.74,0-27.842-15.661-60.904-15.661-19.141,0-36.543,5.22-48.723,10.441v-93.966c8.701-3.48 26.102-12.181 48.723-12.181 29.582,0 52.204,13.921 52.204,13.921 1.74,0 27.842,15.661 60.904,15.661 15.661,0 27.842-3.48 38.283-6.96l-22.621,46.983c-1.74,3.48-1.74,6.96 0,8.701l26.102,38.283c-6.961,3.479-22.623,8.699-41.764,8.699z" data-original="#000000" class="active-path" data-old_color="#000000" fill="#FF4500"/>
    </g>
  </g></g> </svg>
