<?xml version="1.0"?>
<svg xmlns="http://www.w3.org/2000/svg" xmlns:xlink="http://www.w3.org/1999/xlink" version="1.1" viewBox="0 0 295.82 295.82" enable-background="new 0 0 295.82 295.82" width="512px" height="512px" class=""><g><g>
    <path d="m287.12,278.42h-27.842v-102.667c0-5.22-3.48-8.701-8.701-8.701h-34.802c-5.22,0-8.701,3.48-8.701,8.701v102.667h-26.102v-46.983c0-5.22-3.48-8.701-8.701-8.701h-34.801c-5.22,0-8.701,3.48-8.701,8.701v46.983h-26.102v-76.565c0-5.22-3.48-8.701-8.701-8.701h-34.801c-5.22,0-8.701,3.48-8.701,8.701v76.565h-33.062v-88.311l60.904-45.678 66.124,40.023c3.48,1.74 6.96,1.74 10.441-1.74l120.068-113.109c3.48-3.48 3.48-8.701 0-12.181-3.48-3.48-8.701-3.48-12.181,0l-114.848,107.887-66.124-40.023c-3.48-1.74-6.96-1.74-10.441,0l-53.944,40.11v-156.697c3.55271e-15-5.221-3.48-8.701-8.7-8.701s-8.701,3.48-8.701,8.701v278.419c0,5.22 3.48,8.701 8.701,8.701h278.419c5.22,0 8.701-3.48 8.701-8.701 0-5.22-3.48-8.7-8.701-8.7zm-62.644-93.967h17.401v93.966h-17.401v-93.966zm-78.305,55.684h17.401v38.283h-17.401v-38.283zm-78.306-29.582h17.401v67.865h-17.401v-67.865z" data-original="#000000" class="active-path" data-old_color="#DD0D0D" fill="#20C20E"/>
  </g></g> </svg>
